<svg viewBox="0 0 2048 2048" xmlns="http://www.w3.org/2000/svg"><g fill="#f6881f"><path d="m1024 161.09a870.07 870.07 0 0 1 174 17.53 857.74 857.74 0 0 1 308.39 129.78 865.7 865.7 0 0 1 312.75 379.75 857.73 857.73 0 0 1 50.24 161.85 872.41 872.41 0 0 1 0 348 857.74 857.74 0 0 1 -129.78 308.38 865.7 865.7 0 0 1 -379.75 312.75 857.73 857.73 0 0 1 -161.85 50.25 872.41 872.41 0 0 1 -348 0 857.74 857.74 0 0 1 -308.39-129.78 865.7 865.7 0 0 1 -312.75-379.75 857.73 857.73 0 0 1 -50.24-161.85 872.41 872.41 0 0 1 0-348 857.74 857.74 0 0 1 129.78-308.39 865.7 865.7 0 0 1 379.75-312.75 857.73 857.73 0 0 1 161.85-50.24 870.07 870.07 0 0 1 174-17.53m0-100c-531.8 0-962.91 431.11-962.91 962.91s431.11 962.91 962.91 962.91 962.91-431.11 962.91-962.91-431.11-962.91-962.91-962.91z"/><path d="m447.15 1249.31h298.07a16.63 16.63 0 0 1 16.63 16.61l.14 227.43a26.66 26.66 0 0 0 26.65 26.65h172.19a26.66 26.66 0 0 0 26.65-26.66v-1129.67a26.66 26.66 0 0 0 -26.65-26.67h-356.61a26.65 26.65 0 0 0 -24.44 16l-367.78 845.54a3 3 0 0 0 -.19 1.82 849.35 849.35 0 0 0 121.36 291.79 4 4 0 0 0 7.05-.74l91.49-231.59a16.64 16.64 0 0 1 15.44-10.51zm69.25-203.06 172.65-448a16.62 16.62 0 0 1 15.51-10.65h38.62a16.63 16.63 0 0 1 16.62 16.63v448a16.62 16.62 0 0 1 -16.62 16.62h-211.27a16.62 16.62 0 0 1 -15.51-22.6z"/><path d="m1017.31 363.67a26.67 26.67 0 0 1 26.69-26.67h287.82a555.92 555.92 0 0 1 132 15.88q65.18 15.89 116.13 51.79t82.71 92.74q31.71 56.82 31.75 137 0 100.25-56.82 165.41t-148.7 93.57v3.34q111.92 15 183.79 86.89t71.85 192.15q0 96.92-38.43 162.91t-101.1 106.12q-62.65 40.1-143.69 57.64a775.48 775.48 0 0 1 -164.6 17.56h-252.71a26.67 26.67 0 0 1 -26.66-26.66zm210.53 437.93a16.63 16.63 0 0 0 16.63 16.62h23.83q105.27 0 160.41-41.77t55.13-118.63q0-80.21-56.81-113.62t-177.11-33.42h-5.45a16.64 16.64 0 0 0 -16.63 16.63zm0 524.65a16.63 16.63 0 0 0 16.63 16.62h25.53a701.33 701.33 0 0 0 86.89-5.84q46.76-5.83 86.05-24.23a168.93 168.93 0 0 0 65.16-53.47q25.89-35.08 25.9-93.57 0-93.55-63.49-130.33t-192.15-36.75h-33.86a16.63 16.63 0 0 0 -16.63 16.62z"/></g></svg>