<svg id="Layer_1" data-name="Layer 1" xmlns="http://www.w3.org/2000/svg" viewBox="0 0 2036.73 2036.73"><defs><style>.cls-1{fill:#fff;}.cls-2{fill:#f6881f;}</style></defs><title>Aaron-Biby-Web-Design-Logo</title><circle class="cls-1" cx="1018.37" cy="1018.37" r="1018.37"/><path class="cls-2" d="M1018.37,155.46a869.93,869.93,0,0,1,174,17.53,862.57,862.57,0,0,1,671.38,671.38,872.44,872.44,0,0,1,0,348,862.66,862.66,0,0,1-671.38,671.38,872.44,872.44,0,0,1-348,0A862.57,862.57,0,0,1,173,1192.37a872.44,872.44,0,0,1,0-348A862.57,862.57,0,0,1,844.37,173a869.86,869.86,0,0,1,174-17.53m0-100c-531.8,0-962.91,431.11-962.91,962.91s431.11,962.91,962.91,962.91,962.91-431.11,962.91-962.91S1550.17,55.46,1018.37,55.46Z"/><path class="cls-2" d="M441.52,1243.68H739.59a16.63,16.63,0,0,1,16.63,16.61l.14,227.43A26.66,26.66,0,0,0,783,1514.37H955.2a26.66,26.66,0,0,0,26.65-26.66V358a26.66,26.66,0,0,0-26.65-26.67H598.59a26.64,26.64,0,0,0-24.44,16L206.37,1192.91a3,3,0,0,0-.19,1.82,849.34,849.34,0,0,0,121.36,291.79,4,4,0,0,0,7-.74l91.49-231.59a16.62,16.62,0,0,1,15.44-10.51Zm69.25-203.06,172.65-448A16.61,16.61,0,0,1,698.93,582h38.62a16.63,16.63,0,0,1,16.62,16.63v448a16.62,16.62,0,0,1-16.62,16.62H526.28a16.6,16.6,0,0,1-15.51-22.6Z"/><path class="cls-2" d="M1011.68,358a26.67,26.67,0,0,1,26.67-26.67h287.84a555.51,555.51,0,0,1,132,15.88q65.18,15.88,116.13,51.79T1657,491.78q31.71,56.82,31.75,137,0,100.25-56.82,165.41t-148.7,93.57v3.34q111.91,15,183.79,86.89t71.85,192.15q0,96.91-38.43,162.91t-101.1,106.12q-62.65,40.1-143.69,57.64a775.92,775.92,0,0,1-164.6,17.56H1038.37a26.67,26.67,0,0,1-26.66-26.66ZM1222.21,796a16.63,16.63,0,0,0,16.63,16.62h23.83q105.27,0,160.41-41.77t55.13-118.63q0-80.22-56.81-113.62t-177.11-33.42h-5.45a16.64,16.64,0,0,0-16.63,16.63Zm0,524.65a16.63,16.63,0,0,0,16.63,16.62h25.53a703.41,703.41,0,0,0,86.89-5.84q46.76-5.84,86-24.23a169,169,0,0,0,65.16-53.47q25.89-35.09,25.9-93.57,0-93.56-63.49-130.33t-192.15-36.75h-33.86a16.63,16.63,0,0,0-16.63,16.62Z"/></svg>